# xmcd
#
# Track frame offsets: 
#        150
#        12497
#        23515
#        35965
#        47355
#        56715
#        67122
#        78827
#        89707
#        102547
#        113757
#        126915
#        138535
#        151275
#        160520
#        173337
#        185872
#        198037
#        209510
#        221862
#        232230
#        243822
#        256855
#        266850
#        279220
#        291242
#        302420
#        314387
#        326147
#        338660
#
# Disc length: 4667 seconds
#
# Revision: 1
# Processed by: cddbd v1.5.2PL0 Copyright (c) Steve Scherf et al.
# Submitted via: ExactAudioCopy v0.95b4
#
DISCID=ba12391e
DTITLE=Leon Payne - I Love You Because
DYEAR=1900
DGENRE=
TTITLE0=I Love You Because
TTITLE1=I Miss That Gal
TTITLE2=Poke Salad Greens
TTITLE3=A Link In The Chain Of Broken Hearts
TTITLE4=I Hate To Leave You
TTITLE5=Find Them, Fool Them, And Leave Them
TTITLE6=You've Still Got A Place In My Heart
TTITLE7=I'm A Lone Wolf
TTITLE8=If I Could Only Live My Life Over
TTITLE9=How Can I Help It
TTITLE10=Mailman
TTITLE11=Lolita
TTITLE12=Did I Forget To Tell You
TTITLE13=Sister Sue Polka
TTITLE14=I Just Said Goodbye To My Dreams
TTITLE15=It's Many A Mile Back Home
TTITLE16=I Don't Know Why
TTITLE17=Weeping Willow
TTITLE18=Lonley And Blue Over Someone
TTITLE19=Restless Heart
TTITLE20=Lyin' To My Heart
TTITLE21=Fatal Letter
TTITLE22=I Want You To Love Me
TTITLE23=I Couldn't Do A Thing Without You
TTITLE24=Farewell Waltz
TTITLE25=Wouldn't It Be Wonderful
TTITLE26=Teach Me To Forget
TTITLE27=By Your Side
TTITLE28=Empty Dreams
TTITLE29=golden harvest
EXTD=
EXTT0=
EXTT1=
EXTT2=
EXTT3=
EXTT4=
EXTT5=
EXTT6=
EXTT7=
EXTT8=
EXTT9=
EXTT10=
EXTT11=
EXTT12=
EXTT13=
EXTT14=
EXTT15=
EXTT16=
EXTT17=
EXTT18=
EXTT19=
EXTT20=
EXTT21=
EXTT22=
EXTT23=
EXTT24=
EXTT25=
EXTT26=
EXTT27=
EXTT28=
EXTT29=
PLAYORDER=
